HIERARCHY
ROOT Hips
{
 OFFSET 0.000000 0.000000 0.000000
 CHANNELS 6 Xposition Yposition Zposition Yrotation Xrotation Zrotation
 JOINT Chest
 {
  OFFSET 0.000000 9.588913 -0.003946
  CHANNELS 3 Yrotation Xrotation Zrotation
  JOINT Chest2
  {
   OFFSET 0.000000 9.541882 0.008053
   CHANNELS 3 Yrotation Xrotation Zrotation
   JOINT Chest3
   {
    OFFSET 0.000000 9.501360 0.000000
    CHANNELS 3 Yrotation Xrotation Zrotation
    JOINT Chest4
    {
     OFFSET 0.000000 9.491660 0.000000
     CHANNELS 3 Yrotation Xrotation Zrotation
     JOINT Neck
     {
      OFFSET 0.000000 14.331917 0.000000
      CHANNELS 3 Yrotation Xrotation Zrotation
      JOINT Head
      {
       OFFSET 0.000000 8.884799 0.017034
       CHANNELS 3 Yrotation Xrotation Zrotation
       End Site
       {
        OFFSET 0.000000 16.896195 0.008993
       }
      }
     }
     JOINT RightCollar
     {
      OFFSET -2.923010 9.499495 0.000000
      CHANNELS 3 Yrotation Xrotation Zrotation
      JOINT RightShoulder
      {
       OFFSET -13.795216 0.000000 0.000000
       CHANNELS 3 Yrotation Xrotation Zrotation
       JOINT RightElbow
       {
        OFFSET -30.272209 0.000000 0.000000
        CHANNELS 3 Yrotation Xrotation Zrotation
        JOINT RightWrist
        {
         OFFSET -24.478199 0.000000 0.000000
         CHANNELS 3 Yrotation Xrotation Zrotation
         End Site
         {
          OFFSET -18.090752 0.000000 0.000000
         }
        }
       }
      }
     }
     JOINT LeftCollar
     {
      OFFSET 2.923010 9.499495 0.000000
      CHANNELS 3 Yrotation Xrotation Zrotation
      JOINT LeftShoulder
      {
       OFFSET 13.795216 0.000000 0.000000
       CHANNELS 3 Yrotation Xrotation Zrotation
       JOINT LeftElbow
       {
        OFFSET 30.272209 0.000000 0.000000
        CHANNELS 3 Yrotation Xrotation Zrotation
        JOINT LeftWrist
        {
         OFFSET 24.478199 0.000000 0.000000
         CHANNELS 3 Yrotation Xrotation Zrotation
         End Site
         {
          OFFSET 18.090752 0.000000 0.000000
         }
        }
       }
      }
     }
    }
   }
  }
 }
 JOINT RightHip
 {
  OFFSET -7.826875 0.019532 0.001973
  CHANNELS 3 Yrotation Xrotation Zrotation
  JOINT RightKnee
  {
   OFFSET 0.000000 -40.546152 -0.001885
   CHANNELS 3 Yrotation Xrotation Zrotation
   JOINT RightAnkle
   {
    OFFSET 0.000000 -39.417092 -0.003189
    CHANNELS 3 Yrotation Xrotation Zrotation
    JOINT RightToe
    {
     OFFSET 0.000000 -7.579396 17.243563
     CHANNELS 3 Yrotation Xrotation Zrotation
     End Site
     {
      OFFSET 0.000000 -1.500329 6.694466
     }
    }
   }
  }
 }
 JOINT LeftHip
 {
  OFFSET 7.826875 0.019532 0.001973
  CHANNELS 3 Yrotation Xrotation Zrotation
  JOINT LeftKnee
  {
   OFFSET 0.000000 -40.546152 -0.001885
   CHANNELS 3 Yrotation Xrotation Zrotation
   JOINT LeftAnkle
   {
    OFFSET 0.000000 -39.417092 -0.003189
    CHANNELS 3 Yrotation Xrotation Zrotation
    JOINT LeftToe
    {
     OFFSET 0.000000 -7.579396 17.243563
     CHANNELS 3 Yrotation Xrotation Zrotation
     End Site
     {
      OFFSET 0.000000 -1.500329 6.694466
     }
    }
   }
  }
 }
}
MOTION
Frames: 8
Frame Time: 0.008333
0.000000 87.345680 0.000000 0.000000 -5.767889 0.000000 0.000000 11.653876 0.000000 0.000000 -5.885988 0.000000 0.000000 -0.000000 0.000000 0.000000 -0.000000 0.000000 0.000000 12.528808 0.000000 0.000000 0.711711 0.000000 0.000000 -0.000000 0.000000 0.000000 -0.000000 0.000000 2.309063 -0.000000 0.000000 -2.309063 -0.000000 -0.000000 0.000000 -0.000000 0.000000 0.000000 0.000000 0.000000 -2.309063 0.000000 0.000000 2.309063 -0.000000 0.000000 0.000000 8.520374 0.000000 0.000000 1.905768 0.000000 -0.000000 -4.658254 0.000000 0.000000 -0.000000 0.000000 0.000000 8.520374 0.000000 0.000000 1.905768 0.000000 -0.000000 -4.658254 0.000000 0.000000 -0.000000 0.000000
20.953358 88.516039 -40.411134 153.305498 -9.318412 0.290998 -0.375360 4.917545 1.676554 -0.249382 2.804082 0.968904 -0.304396 3.505729 1.209582 -0.249382 2.804083 0.968904 -10.886865 25.083368 0.023612 -12.221466 2.247954 2.524337 -0.685775 0.218914 -3.367834 -6.471185 -0.853726 87.241827 2.801869 3.193389 0.156715 2.037902 -2.977905 -0.710603 1.935635 1.116159 -2.131459 5.995916 -1.626191 -92.073708 -2.781783 5.547638 1.854627 0.358071 5.952434 1.644344 -4.630153 -2.683313 -6.887762 4.358613 10.784329 1.015083 -2.595891 -1.702748 5.723097 -0.057699 0.219140 0.016198 -2.093698 2.787321 1.508919 -5.912331 17.985116 2.635078 4.002355 -9.860933 -3.855504 -0.280358 -0.316911 -0.161361
21.053092 88.502956 -40.351345 153.389018 -9.212716 0.341603 -0.335561 4.940734 1.710615 -0.233859 2.813323 0.959836 -0.285032 3.517234 1.198360 -0.233860 2.813324 0.959837 -10.764957 25.282052 0.064846 -12.092890 2.482204 2.540702 -0.654449 0.166081 -3.378830 -6.539458 -0.919095 87.220096 2.933423 3.147520 0.202443 2.066557 -3.018988 -0.729546 1.872114 1.107586 -2.162930 5.942615 -1.702613 -92.100632 -2.818666 5.377595 1.686091 0.137018 5.791079 1.760335 -4.698204 -2.715253 -6.851487 4.334504 10.660105 1.012975 -2.619785 -1.719819 5.571080 -0.039825 0.287655 0.054150 -2.127392 2.666214 1.557073 -5.715083 17.976848 2.659804 3.850841 -9.830299 -3.986615 -0.249811 -0.287091 -0.103266
21.167020 88.490667 -40.289123 153.453732 -9.126234 0.405154 -0.294405 4.971508 1.735945 -0.218265 2.826017 0.949900 -0.265578 3.533055 1.186051 -0.218265 2.826018 0.949900 -10.636501 25.481235 0.098999 -11.955100 2.716570 2.547662 -0.609948 0.123480 -3.388259 -6.607674 -0.994189 87.193035 3.071350 3.049533 0.260026 2.110153 -3.061985 -0.739343 1.820462 1.109451 -2.198757 5.916803 -1.799289 -92.138744 -2.836710 5.229623 1.533991 -0.098596 5.616702 1.891672 -4.766056 -2.734515 -6.819655 4.321207 10.546165 1.014397 -2.629334 -1.743969 5.410559 -0.030336 0.353790 0.083717 -2.132156 2.584588 1.605532 -5.532768 17.945085 2.678382 3.732856 -9.802145 -4.147694 -0.239025 -0.255789 -0.038808
21.291415 88.480049 -40.225120 153.492889 -9.057439 0.462916 -0.248510 5.011053 1.769060 -0.202214 2.841382 0.940327 -0.245543 3.552216 1.174201 -0.202214 2.841383 0.940327 -10.503933 25.680425 0.124110 -11.810497 2.950669 2.543586 -0.553988 0.089926 -3.396272 -6.663694 -1.079325 87.156531 3.216353 2.912406 0.326831 2.160233 -3.102761 -0.742847 1.785385 1.121518 -2.238667 5.915256 -1.913070 -92.188601 -2.840429 5.093745 1.398755 -0.341444 5.436983 2.034127 -4.827085 -2.742947 -6.776820 4.317994 10.450541 1.022590 -2.626375 -1.809335 5.250075 -0.031331 0.446550 0.099916 -2.097238 2.540804 1.677394 -5.379463 17.891165 2.681858 3.657945 -9.778126 -4.331969 -0.254171 -0.227041 0.024908
21.417332 88.471374 -40.159446 153.518470 -8.989214 0.525147 -0.209922 5.044080 1.794467 -0.185057 2.858566 0.932318 -0.224110 3.573648 1.164315 -0.185057 2.858567 0.932318 -10.370035 25.878968 0.139718 -11.662256 3.184037 2.528610 -0.495902 0.062456 -3.403617 -6.700463 -1.172285 87.110988 3.368761 2.755520 0.400835 2.212247 -3.143275 -0.745019 1.762924 1.144687 -2.281513 5.934936 -2.042718 -92.252413 -2.840001 4.965711 1.285282 -0.584503 5.265433 2.189929 -4.887960 -2.752096 -6.738153 4.312168 10.341355 1.031377 -2.608180 -1.824264 5.098819 -0.034367 0.501801 0.103821 -2.033838 2.514834 1.761622 -5.261815 17.821049 2.666387 3.588676 -9.784096 -4.543031 -0.255314 -0.186918 0.098788
21.542062 88.465034 -40.091751 153.531433 -8.919393 0.580677 -0.173075 5.072242 1.823927 -0.166303 2.875932 0.926258 -0.200665 3.595306 1.156881 -0.166304 2.875933 0.926258 -10.238663 26.074995 0.145233 -11.514721 3.414785 2.502978 -0.444066 0.039332 -3.411901 -6.721958 -1.271687 87.059645 3.528802 2.598550 0.476846 2.256285 -3.180068 -0.744097 1.741904 1.181449 -2.326911 5.975597 -2.186587 -92.330215 -2.843394 4.854771 1.195594 -0.819025 5.101679 2.363588 -4.939746 -2.765363 -6.695003 4.299292 10.229900 1.043438 -2.580824 -1.823122 4.960034 -0.041033 0.546348 0.095742 -1.935204 2.500312 1.867687 -5.180266 17.743939 2.637700 3.531118 -9.824507 -4.775308 -0.250278 -0.139897 0.173199
21.662035 88.461173 -40.021319 153.538344 -8.841608 0.632540 -0.139001 5.093180 1.854647 -0.146602 2.891466 0.922249 -0.176024 3.614672 1.152020 -0.146603 2.891467 0.922249 -10.112736 26.265247 0.140713 -11.371225 3.639144 2.467451 -0.402145 0.022720 -3.422293 -6.737383 -1.379441 87.004409 3.695414 2.461004 0.552590 2.285889 -3.208826 -0.739793 1.713385 1.234341 -2.372325 6.034094 -2.341800 -92.423287 -2.850295 4.757716 1.130677 -1.026621 4.944388 2.521137 -4.980655 -2.789716 -6.653466 4.281307 10.116255 1.061471 -2.553294 -1.805103 4.832087 -0.049426 0.580595 0.080304 -1.794097 2.487700 1.985979 -5.127449 17.665071 2.610562 3.480749 -9.905149 -5.027348 -0.238435 -0.084813 0.243294
